<svg viewBox="0 0 36 36" xmlns="http://www.w3.org/2000/svg">
    <path fill-rule="evenodd" clip-rule="evenodd"
          d="M17.297 22.0237C17.6853 21.6355 18.3147 21.6355 18.703 22.0237L21.3542 24.6749C21.7424 25.0632 21.7424 25.6927 21.3542 26.0809C20.9659 26.4692 20.3364 26.4692 19.9482 26.0809L18.9942 25.1269V30.6802C18.9942 31.2293 18.5491 31.6744 18 31.6744C17.4509 31.6744 17.0058 31.2293 17.0058 30.6802V25.1269L16.0518 26.0809C15.6636 26.4692 15.0341 26.4692 14.6458 26.0809C14.2576 25.6927 14.2576 25.0632 14.6458 24.6749L17.297 22.0237Z"
    />
    <path d="M18.6312 6.48837C14.9858 6.48837 12.0507 9.40575 12.0507 12.9798C12.0507 13.5925 12.1364 14.1841 12.2964 14.7443C12.9555 14.9345 13.5724 15.2225 14.1299 15.5913C14.5878 15.8942 14.7135 16.511 14.4106 16.9689C14.1076 17.4269 13.4908 17.5526 13.0329 17.2496C12.5281 16.9157 11.9542 16.6762 11.3367 16.5563C11.0427 16.4993 10.738 16.4692 10.4252 16.4692C7.82563 16.4692 5.73837 18.5487 5.73837 21.0893C5.73837 23.6298 7.82563 25.7093 10.4252 25.7093C10.9743 25.7093 11.4194 26.1544 11.4194 26.7035C11.4194 27.2526 10.9743 27.6977 10.4252 27.6977C6.74974 27.6977 3.75 24.75 3.75 21.0893C3.75 17.5046 6.62634 14.6037 10.197 14.4846C10.1085 13.9959 10.0623 13.4929 10.0623 12.9798C10.0623 8.28549 13.9099 4.5 18.6312 4.5C22.8175 4.5 26.3146 7.4742 27.0556 11.4212C30.1043 12.7153 32.25 15.7135 32.25 19.2179C32.25 23.2927 29.3501 26.6827 25.4986 27.5063C24.9617 27.6212 24.4333 27.279 24.3185 26.742C24.2037 26.2051 24.5459 25.6768 25.0828 25.5619C28.0517 24.927 30.2616 22.3198 30.2616 19.2179C30.2616 16.3855 28.42 13.9658 25.8374 13.0827C25.1632 12.8521 24.4381 12.7264 23.6811 12.7264C22.9088 12.7264 22.1697 12.8572 21.484 13.0967C20.9656 13.2778 20.3986 13.0044 20.2176 12.486C20.0365 11.9676 20.3099 11.4006 20.8283 11.2196C21.7221 10.9074 22.6827 10.738 23.6811 10.738C24.0727 10.738 24.4586 10.7641 24.8369 10.8146C23.9347 8.29953 21.5024 6.48837 18.6312 6.48837Z"
    />
</svg>
