<svg viewBox="0 0 36 36" xmlns="http://www.w3.org/2000/svg">
    <path fill-rule="evenodd" clip-rule="evenodd"
          d="M18.6312 7.23837C14.9858 7.23837 12.0507 10.1558 12.0507 13.7298C12.0507 14.3425 12.1364 14.9341 12.2964 15.4943C12.9555 15.6845 13.5724 15.9725 14.1299 16.3413C14.5878 16.6442 14.7135 17.261 14.4106 17.7189C14.1076 18.1769 13.4908 18.3026 13.0329 17.9996C12.5281 17.6657 11.9542 17.4262 11.3367 17.3063C11.0427 17.2493 10.738 17.2192 10.4252 17.2192C7.82563 17.2192 5.73837 19.2987 5.73837 21.8393C5.73837 24.3798 7.82563 26.4593 10.4252 26.4593C10.9743 26.4593 11.4194 26.9044 11.4194 27.4535C11.4194 28.0026 10.9743 28.4477 10.4252 28.4477C6.74974 28.4477 3.75 25.5 3.75 21.8393C3.75 18.2546 6.62634 15.3537 10.197 15.2346C10.1085 14.7459 10.0623 14.2429 10.0623 13.7298C10.0623 9.03549 13.9099 5.25 18.6312 5.25C22.8175 5.25 26.3146 8.2242 27.0556 12.1712C30.1043 13.4653 32.25 16.4635 32.25 19.9679C32.25 24.0427 29.3501 27.4327 25.4986 28.2563C24.9617 28.3712 24.4333 28.029 24.3185 27.492C24.2037 26.9551 24.5459 26.4268 25.0828 26.3119C28.0517 25.677 30.2616 23.0698 30.2616 19.9679C30.2616 17.1355 28.42 14.7158 25.8374 13.8327C25.1632 13.6021 24.4381 13.4764 23.6811 13.4764C22.9088 13.4764 22.1697 13.6072 21.484 13.8467C20.9656 14.0278 20.3986 13.7544 20.2176 13.236C20.0365 12.7176 20.3099 12.1506 20.8283 11.9696C21.7221 11.6574 22.6827 11.488 23.6811 11.488C24.0727 11.488 24.4586 11.5141 24.8369 11.5646C23.9347 9.04953 21.5024 7.23837 18.6312 7.23837ZM15.3086 24.7621C15.6969 24.3739 16.3263 24.3739 16.7146 24.7621L18 26.0475L19.2854 24.7621C19.6736 24.3739 20.3031 24.3739 20.6913 24.7621C21.0796 25.1504 21.0796 25.7799 20.6913 26.1681L19.406 27.4535L20.6913 28.7388C21.0796 29.1271 21.0796 29.7566 20.6913 30.1448C20.3031 30.5331 19.6736 30.5331 19.2853 30.1448L18 28.8595L16.7146 30.1448C16.3264 30.5331 15.6969 30.5331 15.3086 30.1448C14.9204 29.7566 14.9204 29.1271 15.3086 28.7388L16.594 27.4535L15.3086 26.1681C14.9204 25.7798 14.9204 25.1504 15.3086 24.7621Z"
/>
</svg>
