<svg width="240" height="60" viewBox="0 0 240 60" fill="none" xmlns="http://www.w3.org/2000/svg">
<path d="M57.5957 0.89502H0V59.1045H240V0.89502H57.5957ZM236.197 55.2605H57.5957V4.79396H236.142V55.2605H236.197Z" fill="#1078D7"/>
<path fill-rule="evenodd" clip-rule="evenodd" d="M29.2085 8.58599C28.7096 11.2214 24.809 17.9255 19.7745 24.8607C14.6039 31.9809 13.6514 37.9915 16.8263 43.3548C19.0941 47.1923 23.7204 50.2438 28.3467 50.9373C29.8889 51.1685 30.2971 51.1223 31.9752 50.7062C37.9169 49.1804 42.5885 44.7418 43.7224 39.6097C44.4481 36.3733 43.7224 32.4895 41.8628 28.9757C41.4093 28.1434 39.8672 25.7392 38.3704 23.6586C36.8737 21.5318 35.0141 18.7115 34.1977 17.3707C32.4288 14.5041 30.0703 9.74187 29.8435 8.67846C29.6621 7.70752 29.3899 7.66129 29.2085 8.58599ZM19.9105 26.1091C17.8241 28.9757 16.3274 32.8132 16.0099 35.7722C15.5563 40.5807 18.4591 45.6203 23.1762 48.3482L24.0833 48.8568L22.9494 47.3772C21.6341 45.6665 20.228 43.0774 19.4116 40.9043C17.7788 36.4195 18.0056 31.0562 20.0466 26.6639C20.4548 25.7392 20.7723 24.9994 20.7269 24.9994C20.7723 24.9994 20.3641 25.508 19.9105 26.1091Z" fill="white"/>
<path d="M63.0002 44.6384C63.0002 46.7554 64.4798 48.1668 66.3629 48.1668C68.246 48.1668 69.7256 46.6849 69.7256 44.6384C69.7256 42.5214 68.246 41.1101 66.3629 41.1101C64.3453 41.0395 63.0002 42.592 63.0002 44.6384ZM63.8073 44.6384C63.8073 43.0154 64.8833 41.8864 66.2957 41.8864C67.708 41.8864 68.7841 43.0154 68.7841 44.6384C68.7841 46.1909 67.7753 47.3905 66.2957 47.3905C64.9506 47.3905 63.8073 46.1909 63.8073 44.6384ZM74.0971 41.0396C73.6936 41.6041 73.0883 41.3924 72.0795 41.8158C70.7344 42.3803 70.5327 44.0739 70.5327 45.4147C70.5327 47.1083 71.407 48.1668 72.752 48.1668C74.0299 48.1668 74.9042 47.1083 74.9042 45.9086C74.9042 44.5679 74.1644 43.7211 72.9538 43.7211C72.214 43.7211 71.5415 44.1445 71.2725 44.7796C71.3397 43.9328 71.5415 43.0154 72.3485 42.6626C73.2901 42.2392 73.9626 42.5214 74.5006 41.7452L74.0971 41.0396ZM71.3397 45.5558C71.4742 44.9913 72.0122 44.4267 72.8193 44.4267C73.6936 44.4267 74.1644 45.0618 74.1644 45.9086C74.1644 46.7554 73.6263 47.3905 72.752 47.3905C71.945 47.4611 71.3397 46.6849 71.3397 45.5558ZM75.7785 45.8381C75.7785 47.1788 76.6528 48.1668 78.0651 48.1668C79.4102 48.1668 80.3517 47.1788 80.3517 45.8381C80.3517 44.4973 79.4774 43.5094 78.0651 43.5094C76.6528 43.5094 75.7785 44.4973 75.7785 45.8381ZM76.5855 45.8381C76.5855 44.9207 77.1908 44.2856 78.0651 44.2856C78.9394 44.2856 79.5447 44.9207 79.5447 45.8381C79.5447 46.7554 78.9394 47.3905 78.0651 47.3905C77.1908 47.4611 76.5855 46.7554 76.5855 45.8381ZM81.3605 50.0721H82.1003V47.8845C82.3693 48.0962 82.8401 48.1668 83.3109 48.1668C84.656 48.1668 85.5303 47.1083 85.5303 45.7675C85.5303 44.4267 84.7905 43.5094 83.5799 43.5094C82.9746 43.5094 82.4366 43.7916 82.1676 44.1445V43.6505H81.4278V50.0721H81.3605ZM83.3109 44.2856C84.1852 44.2856 84.7232 44.9207 84.7232 45.8381C84.7232 46.7554 84.1852 47.4611 83.2436 47.4611C82.8401 47.4611 82.5038 47.3905 82.1003 47.1083V44.9207C82.3693 44.5679 82.8401 44.2856 83.3109 44.2856ZM90.3053 43.6505H89.431L88.4222 46.4732C88.3549 46.6849 88.2877 46.9671 88.2204 47.1788C88.1532 46.9671 88.0859 46.7554 87.9514 46.4732L86.6736 43.6505H85.7993L87.8169 48.0962L87.7496 48.3079C87.4806 49.0136 87.2116 49.2958 86.8753 49.2958C86.6736 49.2958 86.5391 49.2253 86.4046 49.1547L86.1356 49.7898C86.3373 49.9309 86.6063 50.0721 86.9426 50.0721C87.5479 50.0721 87.9514 49.6487 88.5567 48.0962L90.3053 43.6505ZM90.1708 49.1547H90.9106V48.0962H94.3405V49.1547H95.0803V47.32H94.3405V43.6505H91.4486L91.3813 44.8501C91.3141 46.0498 91.0451 46.9671 90.7088 47.3905H90.1708V49.1547ZM92.0539 45.1324L92.1211 44.3562H93.5335V47.32H91.5159C91.7176 47.0377 91.9866 46.2615 92.0539 45.1324ZM95.5511 45.8381C95.5511 47.1788 96.4254 48.1668 97.8377 48.1668C99.1828 48.1668 100.124 47.1788 100.124 45.8381C100.124 44.4973 99.25 43.5094 97.8377 43.5094C96.4254 43.5094 95.5511 44.4973 95.5511 45.8381ZM96.3581 45.8381C96.3581 44.9207 96.9634 44.2856 97.8377 44.2856C98.712 44.2856 99.3173 44.9207 99.3173 45.8381C99.3173 46.7554 98.712 47.3905 97.8377 47.3905C96.9634 47.4611 96.3581 46.7554 96.3581 45.8381ZM101.133 48.0962C101.537 48.0962 102.142 48.1668 102.68 48.1668C104.025 48.1668 104.63 47.7434 104.63 46.8966C104.63 46.332 104.294 45.9792 103.622 45.8381C104.16 45.7675 104.496 45.3441 104.496 44.8501C104.496 44.0739 103.891 43.7211 102.68 43.7211C102.075 43.7211 101.537 43.7916 101.133 43.7916V48.0962ZM102.814 46.0498C103.487 46.0498 103.891 46.2615 103.891 46.7554C103.891 47.2494 103.487 47.4611 102.814 47.4611C102.478 47.4611 102.209 47.4611 101.94 47.3905V46.0498H102.814ZM102.747 44.215C103.285 44.215 103.689 44.4267 103.689 44.8501C103.689 45.2735 103.353 45.5558 102.814 45.5558H101.873V44.215C102.075 44.2856 102.411 44.215 102.747 44.215ZM106.043 44.5679C106.379 44.3562 106.715 44.215 107.186 44.215C107.993 44.215 108.128 44.7796 108.128 45.6264C107.859 45.4147 107.388 45.3441 107.051 45.3441C106.11 45.3441 105.437 45.8381 105.437 46.7554C105.437 47.6022 105.975 48.0962 106.715 48.0962C107.388 48.0962 107.791 47.8139 108.06 47.4611V48.0256H108.8V45.2735C108.8 44.1445 108.397 43.4388 107.186 43.4388C106.648 43.4388 106.177 43.5799 105.774 43.8622L106.043 44.5679ZM107.051 47.4611C106.581 47.4611 106.312 47.1788 106.312 46.7554C106.312 46.2615 106.782 46.0498 107.253 46.0498C107.59 46.0498 107.926 46.1203 108.195 46.332V46.8966C107.926 47.1083 107.59 47.4611 107.051 47.4611ZM113.239 48.0962H113.979V43.6505H113.239V45.4852H110.885V43.6505H110.145V48.0962H110.885V46.1909H113.239V48.0962ZM116.131 48.0962L118.552 44.7796V48.0962H119.292V43.6505H118.552L116.131 46.9671V43.6505H115.391V48.0962H116.131ZM123.999 46.9671C123.73 47.2494 123.26 47.4611 122.722 47.4611C121.915 47.4611 121.309 46.9671 121.242 46.1203H124.537C124.537 45.9792 124.605 45.8381 124.605 45.5558C124.605 44.3562 123.73 43.5094 122.654 43.5094C121.242 43.5094 120.502 44.5679 120.502 45.8381C120.502 47.2494 121.377 48.1668 122.789 48.1668C123.327 48.1668 123.999 47.9551 124.403 47.6022L123.999 46.9671ZM122.52 44.2856C123.26 44.2856 123.73 44.709 123.73 45.4852H121.175C121.242 44.7796 121.78 44.2856 122.52 44.2856ZM127.093 49.1547H127.766V48.0962H131.196V49.1547H131.935V47.32H131.196V43.6505H128.304L128.236 44.8501C128.169 46.0498 127.9 46.9671 127.564 47.3905H127.026V49.1547H127.093ZM128.976 45.1324L129.043 44.3562H130.456V47.32H128.371C128.64 47.0377 128.909 46.2615 128.976 45.1324ZM135.634 48.0962H136.374V43.6505H133.415L133.348 45.0618C133.213 47.1083 132.608 47.4611 132.339 47.3905L132.406 48.1668C133.28 48.1668 133.953 47.7434 134.088 45.203L134.155 44.4267H135.634V48.0962ZM139.602 43.6505C138.19 43.6505 137.719 44.3562 137.719 45.1324C137.719 45.8381 138.19 46.332 138.661 46.4026L137.45 48.0962H138.392L139.401 46.6143H140.208V48.0962H140.947V43.6505H139.602ZM138.526 45.1324C138.526 44.709 138.795 44.3562 139.468 44.3562H140.14V45.8381H139.266C138.93 45.8381 138.526 45.5558 138.526 45.1324ZM144.108 45.8381C144.108 47.1788 145.05 48.1668 146.395 48.1668C147.74 48.1668 148.682 47.1788 148.682 45.8381C148.682 44.4973 147.807 43.5094 146.395 43.5094C145.05 43.5094 144.108 44.4973 144.108 45.8381ZM144.915 45.8381C144.915 44.9207 145.521 44.2856 146.395 44.2856C147.269 44.2856 147.875 44.9207 147.875 45.8381C147.875 46.7554 147.269 47.3905 146.395 47.3905C145.521 47.4611 144.915 46.7554 144.915 45.8381ZM152.919 43.6505H152.179V45.6969C151.977 45.8381 151.641 45.9792 151.17 45.9792C150.565 45.9792 150.228 45.6264 150.228 44.9207V43.6505H149.421V44.9913C149.421 46.1203 149.892 46.6849 150.901 46.6849C151.372 46.6849 151.775 46.5437 152.112 46.332V48.0256H152.851V43.6505H152.919ZM155.003 48.0962L157.425 44.7796V48.0962H158.164V43.6505H157.425L155.003 46.9671V43.6505H154.264V48.0962H155.003ZM162.872 46.8966C162.603 47.2494 162.132 47.4611 161.662 47.4611C160.855 47.4611 160.115 46.8966 160.115 45.9086C160.115 44.9913 160.787 44.3562 161.594 44.3562C162.065 44.3562 162.469 44.4973 162.805 44.8501L163.141 44.215C162.738 43.7916 162.132 43.6505 161.46 43.6505C160.249 43.6505 159.308 44.709 159.308 45.9792C159.308 47.3905 160.249 48.3079 161.594 48.3079C162.267 48.3079 162.872 48.0256 163.208 47.5317L162.872 46.8966ZM163.612 44.4267H165.159V48.0962H165.899V44.4267H167.445V43.6505H163.612V44.4267ZM172.019 43.6505H171.01L169.194 45.8381L171.077 48.0962H172.086L170.068 45.7675L172.019 43.6505ZM168.252 48.0962H168.992V43.6505H168.252V48.0962ZM173.7 48.0962L176.121 44.7796V48.0962H176.861V43.6505H176.121L173.7 46.9671V43.6505H172.96V48.0962H173.7ZM183.654 46.8966C183.385 47.2494 182.914 47.4611 182.443 47.4611C181.636 47.4611 180.896 46.8966 180.896 45.9086C180.896 44.9913 181.569 44.3562 182.376 44.3562C182.847 44.3562 183.25 44.4973 183.586 44.8501L183.923 44.215C183.519 43.7916 182.914 43.6505 182.241 43.6505C181.031 43.6505 180.089 44.709 180.089 45.9792C180.089 47.3905 181.031 48.3079 182.376 48.3079C183.048 48.3079 183.654 48.0256 183.99 47.5317L183.654 46.8966ZM184.393 44.4267H185.94V48.0962H186.68V44.4267H188.227V43.6505H184.393V44.4267ZM188.698 45.8381C188.698 47.1788 189.572 48.1668 190.984 48.1668C192.329 48.1668 193.271 47.1788 193.271 45.8381C193.271 44.4973 192.397 43.5094 190.984 43.5094C189.572 43.5094 188.698 44.4973 188.698 45.8381ZM189.437 45.8381C189.437 44.9207 190.043 44.2856 190.917 44.2856C191.791 44.2856 192.397 44.9207 192.397 45.8381C192.397 46.7554 191.791 47.3905 190.917 47.3905C190.043 47.3905 189.437 46.7554 189.437 45.8381ZM197.441 43.6505H196.701V45.6969C196.499 45.8381 196.163 45.9792 195.759 45.9792C195.154 45.9792 194.818 45.6264 194.818 44.9207V43.6505H194.011V44.9913C194.011 46.1203 194.481 46.6849 195.49 46.6849C195.961 46.6849 196.365 46.5437 196.701 46.332V48.0256H197.441V43.6505ZM201.947 48.0962H202.686V43.6505H201.947V45.4852H199.593V43.6505H198.853V48.0962H199.593V46.1909H201.947V48.0962ZM204.031 48.0962H205.377C206.722 48.0962 207.125 47.32 207.125 46.5437C207.125 45.7675 206.722 44.9913 205.444 44.9913H204.771V43.6505H204.031V48.0962ZM207.999 48.0962H208.739V43.6505H207.999V48.0962ZM205.309 45.6969C206.049 45.6969 206.318 45.9792 206.318 46.5437C206.318 47.0377 206.049 47.32 205.309 47.32H204.771V45.6969H205.309ZM213.851 43.6505H212.976L211.833 45.3441L210.69 43.6505H209.748L211.228 45.8381L209.614 48.0962H210.488L211.766 46.2615L212.976 48.0962H213.918L212.304 45.7675L213.851 43.6505ZM216.944 48.0962C217.348 48.0962 217.953 48.1668 218.491 48.1668C219.836 48.1668 220.441 47.7434 220.441 46.8966C220.441 46.332 220.105 45.9792 219.433 45.8381C219.971 45.7675 220.307 45.3441 220.307 44.8501C220.307 44.0739 219.702 43.7211 218.491 43.7211C217.886 43.7211 217.348 43.7916 216.944 43.7916V48.0962ZM218.626 46.0498C219.298 46.0498 219.634 46.2615 219.634 46.7554C219.634 47.2494 219.231 47.4611 218.558 47.4611C218.222 47.4611 217.886 47.4611 217.684 47.3905V46.0498H218.626ZM218.558 44.215C219.096 44.215 219.5 44.4267 219.5 44.8501C219.5 45.2735 219.164 45.5558 218.626 45.5558H217.684V44.215C217.886 44.2856 218.222 44.215 218.558 44.215ZM221.316 45.8381C221.316 47.1788 222.19 48.1668 223.602 48.1668C225.015 48.1668 225.889 47.1788 225.889 45.8381C225.889 44.4973 225.015 43.5094 223.602 43.5094C222.19 43.5094 221.316 44.4973 221.316 45.8381ZM222.123 45.8381C222.123 44.9207 222.728 44.2856 223.602 44.2856C224.477 44.2856 225.082 44.9207 225.082 45.8381C225.082 46.7554 224.477 47.3905 223.602 47.3905C222.728 47.4611 222.123 46.7554 222.123 45.8381ZM226.158 49.1547H226.831V48.0962H230.26V49.1547H231V47.32H230.26V43.6505H227.369L227.301 44.8501C227.234 46.0498 226.965 46.9671 226.629 47.3905H226.091V49.1547H226.158ZM228.108 45.1324L228.176 44.3562H229.588V47.32H227.503C227.705 47.0377 227.974 46.2615 228.108 45.1324Z" fill="#1078D7"/>
<path d="M68.1939 37.0251V21.3102L73.3154 16.1207H81.0337V37.0251H86.1553V10.9312H70.7186L63.0002 18.752V37.0251H68.1939ZM94.9556 31.7624V16.1207H107.795V31.7624H94.9556ZM110.392 37.0251L112.917 34.4669V13.5625L110.392 10.9312H92.3588L89.8341 13.5625V34.4669L92.3588 37.0251H110.392ZM137.154 37.0251L139.679 34.4669V29.2773H134.557V31.8355H121.717V16.1207H134.557V18.752H139.679V13.5625L137.154 10.9312H119.12L116.596 13.5625V34.4669L119.12 37.0251H137.154ZM141.915 26.5729H152.158V21.3833H141.915V26.5729ZM159.876 31.7624V26.5729H172.716V31.7624H159.876ZM175.313 37.0251L177.838 34.4669V24.0147L175.313 21.3833H159.876V16.1207H176.611V10.9312H154.755V37.0251H175.313ZM186.277 37.0251L199.117 19.6291V37.0251H204.239V10.9312H199.117L186.277 28.3271V10.9312H181.156V37.0251H186.277ZM213.111 31.7624V16.1207H225.951V31.7624H213.111ZM228.476 37.0251L231 34.4669V13.5625L228.476 10.9312H210.442L207.917 13.5625V34.4669L210.442 37.0251H228.476Z" fill="#1078D7"/>
</svg>
