<svg viewBox="0 0 26 26" fill="none" xmlns="http://www.w3.org/2000/svg">
    <path d="M13.0002 17.807V15.27" stroke-width="1.5" stroke-linecap="round" stroke-linejoin="round"/>
    <path fill-rule="evenodd" clip-rule="evenodd"
          d="M19.195 6.46042C20.885 6.46042 22.245 7.83042 22.245 9.52042V12.9604C19.785 14.4004 16.535 15.2704 12.995 15.2704C9.455 15.2704 6.215 14.4004 3.755 12.9604V9.51042C3.755 7.82042 5.125 6.46042 6.815 6.46042H19.195Z"
          stroke-width="1.5" stroke-linecap="round" stroke-linejoin="round"/>
    <path d="M16.5002 6.456V6.09C16.5002 4.87 15.5102 3.88 14.2902 3.88H11.7102C10.4902 3.88 9.50024 4.87 9.50024 6.09V6.456"
          stroke-width="1.5" stroke-linecap="round" stroke-linejoin="round"/>
    <path d="M3.77954 16.6132L3.96854 19.1222C4.09654 20.8132 5.50554 22.1202 7.20054 22.1202H18.7995C20.4945 22.1202 21.9035 20.8132 22.0315 19.1222L22.2205 16.6132"
          stroke-width="1.5" stroke-linecap="round" stroke-linejoin="round"/>
</svg>
